# AST/ASF file generated using VICON BodyLanguage
# -----------------------------------------------
:version 1.10
:name VICON
:units
  mass 1.0
  length 0.45
  angle deg
:documentation
   .ast/.asf automatically generated from VICON data using
   VICON BodyBuilder and BodyLanguage model FoxedUp or BRILLIANT.MOD
:root
   order TX TY TZ RX RY RZ
   axis XYZ
   position 0 0 0  
   orientation 0 0 0 
:bonedata
  begin
     id 1 
     name lhipjoint
     direction 0.535335 -0.74333 0.401095 
     length 2.04549 
     axis 0 0 0  XYZ
  end
  begin
     id 2 
     name lfemur
     direction 0.34202 -0.939693 0  
     length 6.95643  
     axis 0 0 20  XYZ
    dof rx ry rz
    limits (-160.0 20.0)
           (-70.0 70.0)
           (-60.0 70.0)
  end
  begin
     id 3 
     name ltibia
     direction 0.34192 -0.939729 0   
     length 5.55969   
     axis 0 0 20   XYZ
    dof rx
    limits (-10.0 170.0)
  end
  begin
     id 4 
     name lfoot
     direction 0.216943 -0.596046 0.773088   
     length 2.27918   
     axis -90 7.62852e-016 20   XYZ
    dof rx rz
    limits (-45.0 90.0)
           (-70.0 20.0)
  end
  begin
     id 5 
     name ltoes
     direction 1.53519e-011 -4.21748e-011 1   
     length 1.05562   
     axis -90 7.62852e-016 20   XYZ
    dof rx
    limits (-90.0 20.0)
  end
  begin
     id 6 
     name rhipjoint
     direction -0.576368 -0.719173 0.38806   
     length 2.1142  
     axis 0 0 0  XYZ 
  end
  begin
     id 7 
     name rfemur
     direction -0.34202 -0.939693 0   
     length 7.07928   
     axis 0 0 -20   XYZ
    dof rx ry rz
    limits (-160.0 20.0)
           (-70.0 70.0)
           (-70.0 60.0)
  end
  begin
     id 8 
     name rtibia
     direction -0.34202 -0.939693 0   
     length 5.79974   
     axis 0 0 -20   XYZ
    dof rx
    limits (-10.0 170.0)
 end
 begin
     id 9 
     name rfoot
     direction -0.189288 -0.520065 0.832888   
     length 2.42173  
     axis -90 -7.62852e-016 -20   XYZ
    dof rx rz
    limits (-45.0 90.0)
           (-20.0 70.0)
  end
  begin
     id 10 
     name rtoes
     direction -1.53574e-011 -4.21658e-011 1   
     length 1.14469   
     axis -90 -7.62852e-016 -20   XYZ
    dof rx
    limits (-90.0 20.0)
  end
  begin
     id 11 
     name lowerback
     direction -0.00135702 0.993803 0.111144   
     length 1.91308   
     axis 0 0 0   XYZ
    dof rx ry rz
    limits (-20.0 45.0)
           (-30.0 30.0)
           (-30.0 30.0)
  end
  begin
     id 12 
     name upperback
     direction -0.0056745 0.999813 0.0184631   
     length 1.9212   
     axis 0 0 0   XYZ
    dof rx ry rz
    limits (-20.0 45.0)
           (-30.0 30.0)
           (-30.0 30.0)
  end
  begin
     id 13 
     name thorax
     direction -0.00733434 0.999426 -0.0330788   
     length 1.94196   
     axis 0 0 0   XYZ
    dof rx ry rz
    limits (-20.0 45.0)
           (-30.0 30.0)
           (-30.0 30.0)
  end
  begin
     id 14 
     name lowerneck
     direction 0.0563074 0.996944 -0.0541571   
     length 2.34257   
     axis 0 0 0   XYZ
    dof rx ry rz
    limits (-20.0 45.0)
           (-30.0 30.0)
           (-30.0 30.0)
  end
  begin
     id 15 
     name upperneck
     direction -0.0544519 0.976166 -0.210085   
     length 2.32506   
     axis 0 0 0   XYZ
    dof rx ry rz
    limits (-20.0 45.0)
           (-30.0 30.0)
           (-30.0 30.0)
  end
  begin
     id 16
     name head
     direction -0.0226035 0.997615 -0.0652205  
     length 2.3648  
     axis 0 0 0   XYZ
    dof rx ry rz
    limits (-20.0 45.0)
           (-30.0 30.0)
           (-30.0 30.0)
  end
  begin
     id 17 
     name lclavicle
     direction 0.92109 0.381297 -0.0787716  
     length 4.0487  
     axis 0 0 0   XYZ
    dof ry rz
    limits (-20.0 10.0)
           (0.0 20.0)
  end
  begin
     id 18 
     name lhumerus
     direction 1 -4.48986e-011 3.56724e-027   
     length 4.94991   
     axis 180 -30 -90   XYZ
    dof rx ry rz
    limits (-60.0 90.0)
           (-90.0 90.0)
           (-90.0 90.0)
  end
  begin
     id 19
     name lradius
     direction 1 -4.48981e-011 8.62147e-027   
     length 2.7606   
     axis 180 -30 -90   XYZ
    dof rx
    limits (-10.0 170.0)
  end
  begin
     id 20
     name lwrist
     direction 1 -4.48989e-011 1.59799e-026   
     length 1.3803   
     axis -1.17785e-014 90 90   XYZ
    dof ry
    limits (-180.0 0.0)
 end
  begin
     id 21 
     name lhand
     direction 1 -4.48896e-011 3.19599e-026   
     length 0.843936   
     axis -2.03931e-014 90 90   XYZ
    dof rx rz
    limits (-90.0 90.0)
           (-45.0 45.0)
  end
  begin
     id 22 
     name lfingers
     direction 1 -4.48887e-011 6.39197e-026   
     length 0.680403   
     axis -4.07862e-014 90 90   XYZ
    dof rx
    limits (0.0 90.0)
  end
  begin
     id 23
     name lthumb
     direction 0.707107 -6.348e-011 0.707107   
     length 0.976926   
     axis -90 45 2.85299e-015   XYZ
    dof rx rz
    limits (-45.0 45.0)
           (-45.0 45.0)
  end
  begin
     id 24 
     name rclavicle
     direction -0.951104 0.307692 -0.026953   
     length 4.21801  
     axis 0 0 0   XYZ 
    dof ry rz
    limits (-10.0 20.0)
           (-20.0 0.0)
  end
  begin
     id 25 
     name rhumerus
     direction -1 -4.4896e-011 -1.8171e-018  
     length 4.32982   
     axis 180 30 90   XYZ
    dof rx ry rz
    limits (-90.0 60.0)
           (-90.0 90.0)
           (-90.0 90.0)
  end
  begin
     id 26 
     name rradius
     direction -1 -4.48959e-011 8.25165e-027   
     length 3.20057   
     axis 180 30 90   XYZ
    dof rx
    limits (-10.0 170.0)
  end
  begin
     id 27 
     name rwrist
     direction -1 -4.48997e-011 1.59799e-026   
     length 1.60029   
     axis -1.17785e-014 -90 -90   XYZ
    dof ry
    limits (-180.0 0.0)
  end
  begin
     id 28
     name rhand
     direction -1 -4.49023e-011 3.19599e-026   
     length 0.960433   
     axis -2.03931e-014 -90 -90   XYZ
    dof rx rz
    limits (-90.0 90.0)
           (-45.0 45.0)
  end
  begin
     id 29
     name rfingers
     direction -1 -4.48802e-011 6.39197e-026   
     length 0.774326   
     axis -4.07862e-014 -90 -90   XYZ
    dof rx
    limits (0.0 90.0)
  end
  begin
     id 30
     name rthumb
     direction -0.707107 -6.34876e-011 0.707107   
     length 1.11178   
     axis -90 -45 -2.85299e-015   XYZ
    dof rx rz
    limits (-45.0 45.0)
           (-45.0 45.0)
  end
:hierarchy
  begin
    root lhipjoint rhipjoint lowerback
    lhipjoint lfemur
    lfemur ltibia
    ltibia lfoot
    lfoot ltoes
    rhipjoint rfemur
    rfemur rtibia
    rtibia rfoot
    rfoot rtoes
    lowerback upperback
    upperback thorax
    thorax lowerneck lclavicle rclavicle
    lowerneck upperneck
    upperneck head
    lclavicle lhumerus
    lhumerus lradius
    lradius lwrist
    lwrist lhand lthumb
    lhand lfingers
    rclavicle rhumerus
    rhumerus rradius
    rradius rwrist
    rwrist rhand rthumb
    rhand rfingers
end

#!OML:ASF C:\KaitlinTest1\Natural Motions\Nikki\Session 2\Nikki.ASF
:FULLY-SPECIFIED
:DEGREES
296
root -12.3136 14.4716 4.19556 67.5756 80.0946 48.1603
lowerback -4.11374 -1.8498 -1.17345
upperback -6.4242 -2.34472 -2.15785
thorax -4.37646 -1.0965 -1.5854
lowerneck -22.5183 -11.2403 -8.056
upperneck 0.878366 41.6924 2.48534
head 160.231 62.1421 -44.9387
rclavicle 1.58531e-014 5.36719e-015
rhumerus -46.018 -19.283 -71.9558
rradius 17.4902
rwrist 16.9809
rhand -47.6455 14.0184
rfingers 7.12502
rthumb -20.3277 -14.9377
lclavicle 1.58531e-014 5.36719e-015
lhumerus -64.079 40.0404 40.7925
lradius 28.8224
lwrist -21.1416
lhand -49.499 -0.429444
lfingers 7.12502
lthumb -22.1082 28.3266
rfemur -54.7624 -7.2608 13.8823
rtibia 78.1427
rfoot -31.0981 -3.14841
rtoes -1.59028e-015
lfemur -45.9829 -1.58982 -26.6175
ltibia 63.6994
lfoot -24.5646 8.33161
ltoes 9.22361e-014
297
root -12.4219 14.4152 4.19686 67.2801 80.0513 47.7651
lowerback -2.82726 -1.94205 -1.34471
upperback -6.23516 -2.52327 -2.25856
thorax -4.90551 -1.18611 -1.5538
lowerneck -23.9133 -11.3978 -7.32919
upperneck 0.469716 41.3744 2.40723
head 159.466 62.1937 -45.6482
rclavicle 1.14177e-014 9.24349e-015
rhumerus -40.8637 -17.8079 -76.3664
rradius 16.9362
rwrist 17.9965
rhand -47.3544 14.1903
rfingers 7.12502
rthumb -20.048 -14.7954
lclavicle 1.14177e-014 9.24349e-015
lhumerus -57.3881 41.5297 45.7016
lradius 26.06
lwrist -24.8814
lhand -49.0944 -1.65011
lfingers 7.12502
lthumb -21.7197 27.1514
rfemur -56.0754 -6.74136 13.7809
rtibia 79.2879
rfoot -30.9426 -3.30587
rtoes -1.24042e-013
lfemur -47.1277 -2.21493 -26.4265
ltibia 64.8467
lfoot -24.4436 9.15893
ltoes -3.18055e-014
298
root -12.5208 14.3534 4.18729 67.0424 79.7637 47.4425
lowerback -1.66494 -1.96793 -1.50985
upperback -6.6981 -2.60937 -2.47453
thorax -6.06553 -1.21683 -1.64254
lowerneck -23.7376 -11.2996 -7.02323
upperneck 0.904346 42.8796 2.77307
head 160.769 60.5933 -44.8379
rclavicle 7.79609e-015 -2.45499e-014
rhumerus -37.4445 -14.5371 -80.5447
rradius 16.6995
rwrist 18.4307
rhand -47.2286 14.6695
rfingers 7.12502
rthumb -19.927 -14.3289
lclavicle 7.79609e-015 -2.45499e-014
lhumerus -50.42 38.531 53.4334
lradius 25.4112
lwrist -23.4451
lhand -48.5958 -1.44523
lfingers 7.12502
lthumb -21.2408 27.4109
rfemur -57.0303 -5.86028 13.2578
rtibia 80.0501
rfoot -31.3107 -3.77019
rtoes 1.24042e-013
lfemur -48.2514 -2.65096 -26.5912
ltibia 66.0801
lfoot -24.516 10.0207
ltoes 1.43125e-013
299
root -12.6266 14.2752 4.18834 66.1971 79.5654 46.3065
lowerback -0.725488 -1.71531 -1.6174
upperback -6.72924 -2.31194 -2.42166
thorax -6.62604 -1.06122 -1.5125
lowerneck -24.3669 -11.6328 -7.4216
upperneck 0.630679 42.6187 2.43404
head 160.693 60.019 -44.7096
rclavicle -1.90833e-014 -5.36719e-015
rhumerus -33.0122 -10.1363 -84.3279
rradius 16.6683
rwrist 17.1267
rhand -46.9928 14.1631
rfingers 7.12502
rthumb -19.7003 -14.8586
lclavicle -1.90833e-014 -5.36719e-015
lhumerus -42.8729 35.5753 61.4407
lradius 24.9864
lwrist -21.8116
lhand -47.4735 -0.62362
lfingers 7.12502
lthumb -20.1624 28.3501
rfemur -57.9835 -4.73571 13.0815
rtibia 80.443
rfoot -31.8453 -4.94677
rtoes -9.54166e-014
lfemur -49.7472 -2.70134 -26.5556
ltibia 67.4153
lfoot -24.5043 10.4726
ltoes -7.95139e-015
